<?xml version="1.0" encoding="utf-8"?>
<!-- Generator: Adobe Illustrator 24.0.2, SVG Export Plug-In . SVG Version: 6.00 Build 0)  -->
<svg version="1.1" id="Capa_1" xmlns="http://www.w3.org/2000/svg" xmlns:xlink="http://www.w3.org/1999/xlink" x="0px" y="0px"
	 viewBox="0 0 164.7 50.3" style="enable-background:new 0 0 164.7 50.3;" xml:space="preserve">
<style type="text/css">
	.st0{fill:#DB2531;}
	.st1{fill:#DB232F;}
</style>
<g>
	<path class="st0" d="M7.6,24.3c0-5,0.2-10-0.1-15C7.4,6.3,9.3,7.2,10.8,7c1.9-0.2,2.6,0.3,2.5,2.3c-0.2,3.2,0.1,6.5-0.1,9.7
		c-0.1,2.1,1,2.1,2.4,1.9c1.3-0.2,3.4,1,3.3-1.9c-0.1-3.3,0-6.7-0.1-10c0-1.5,0.3-2.1,2-2.1c4.1,0,4.1-0.1,4.1,3.9
		c0,8.7-0.1,17.4,0,26.2c0.1,3.7-2.8,2.4-4.5,2.8c-2.4,0.5-1.5-1.5-1.5-2.6c-0.1-3.2-0.1-6.3,0-9.5c0-1.5-0.5-2.2-1.9-1.8
		c-1.4,0.4-3.7-1.1-3.8,1.8c-0.1,3.5,0,7,0,10.6c0,2.5-1,3.2-4.5,3.1c-2.2-0.1-1.1-1.8-1.1-2.7C7.6,33.9,7.6,29.1,7.6,24.3z"/>
	<path class="st0" d="M128.1,7.1c5.7-0.3,5.7-0.3,7.4,4.6c0.6,1.8,1.3,3.7,1.9,5.5c0.1,0.3,0.2,0.5,0.4,0.9c1-2.7,2-5.3,2.7-8
		c0.6-2.3,1.7-3.7,4.4-3.1c0.5,0.1,1.1,0,2.1,0c-1.6,4.7-3.1,9.2-4.8,13.6c-0.6,1.6-0.6,2.9-0.1,4.5c1.6,4.7,3,9.5,4.6,14.2
		c0.5,1.6,0.7,2.1-1.6,2c-3.1-0.2-4.3-1.4-4.9-4.3c-0.7-3.2-1.9-6.3-3-9.9c-1.3,3.7-2.4,7.1-3.6,10.4c-0.6,1.8-2.7,2.6-4.9,1.7
		c-2-0.8-0.4-2.1-0.2-3c1.3-4,2.8-8,4.3-12c0.5-1.3,0.5-2.4,0-3.7C131.4,16.2,129.8,11.7,128.1,7.1z"/>
	<path class="st1" d="M42.7,37.6c-2.5,0.7-3-0.8-3-2.7c0.1-2.2-0.8-2.6-3-2.7c-3.7-0.1-4.2,1.9-4.4,4.7c0,0.7,0.1,1.6-0.9,1.7
		c-1.4,0.1-2.8,0-4.1,0.1c0-0.8-0.1-1.6,0-2.4c1-6.1,2-12.1,3-18.2c0.5-2.8,1.1-5.6,1.4-8.4c0.3-1.9,0.9-2.8,3.1-2.8
		c5.6,0.2,5.6,0,6.5,5.4c1.3,7.4,2.4,14.9,4.1,22.2C46.1,37.6,45.1,38,42.7,37.6z M36.3,14.3c-0.7,1.3-0.6,2.4-0.9,3.5
		c-0.6,2.8-0.9,5.6-1.3,8.4c-0.2,1.5,0.7,1.8,1.8,1.5c0.9-0.3,2.8,0.9,2.5-0.9C37.9,22.6,37,18.4,36.3,14.3z"/>
	<path class="st1" d="M84.7,36.5c-1.6,0-2.8-0.1-4,0c-1.5,0.2-2.2-0.5-2.7-1.8c-1.3-3.2-2.7-6.4-4.2-9.9c-2.6,2.9-1.3,6.2-1.5,9.2
		c-0.1,1.8-0.4,2.5-2.4,2.6c-2.8,0.2-3.4-0.6-3.4-3.3c0.2-8.1,0.2-16.2,0-24.2c-0.1-2.8,1.6-2,3.1-2.1c1.6-0.1,2.9-0.2,2.7,2.2
		c-0.2,2.9-0.1,5.7,0.4,8.8c1.7-3.1,3.5-6.1,5.2-9.2c0.8-1.5,4.3-2.5,5.8-1.7c1,0.5,0.2,1.1,0,1.6c-1.7,3.1-3.4,6.2-5.3,9.1
		c-0.9,1.4-0.9,2.6-0.2,4.1C80.4,26.5,82.4,31.3,84.7,36.5z"/>
	<path class="st1" d="M47.5,21.6c0-2.8-0.1-5.6,0-8.3c0.1-2.8,1.1-5.2,3.9-6.1c3.4-1.1,6.9-1.4,9.9,1c2.4,1.9,2.8,4.8,2.3,7.6
		c-0.4,2.1-2.5,0.7-3.8,1.1c-1.1,0.3-1.7-0.2-1.7-1.5c0-1.9,0.7-4.5-2.7-4.3c-3.2,0.2-2.3,2.8-2.3,4.7c-0.1,4.5,0,9.1,0,13.6
		c0,1.8,0.5,3.3,2.5,3.2c2,0,2.7-1.4,2.5-3.2c0-0.4,0-0.7,0-1.1c0-2.9,2.1-4.3,4.8-3.2c0.5,0.2,0.7,0.5,0.7,1
		c0.5,7.8-2,11.7-10.1,11.5c-3.7-0.1-6.1-3-6.2-7C47.5,27.6,47.5,24.6,47.5,21.6z"/>
	<path class="st0" d="M94,6.9c1.4,0,2.8,0.2,4.2,0c2.5-0.4,3,0.7,2.8,2.9c-0.1,1.1-0.4,1.7-1.6,1.6c-0.6-0.1-1.3,0-2,0
		c-5,0-4.8,0-5,4.9c-0.1,2.7,0.8,3.2,3.3,3.2c1.2,0,3.2-1.1,3.6,1.3c0.5,3,0.1,3.5-3.1,3.3c-4.6-0.3-3.6-0.3-3.7,3.5
		c0,1.9,0,3.9,0,5.8c0,2.8-2.4,4.3-5.1,3.1c-0.8-0.4-0.7-1-0.7-1.6c0-8.8,0-17.6,0-26.4c0-1.3,0.6-1.5,1.7-1.5
		C90.3,7,92.1,6.9,94,6.9z"/>
	<path class="st1" d="M103.2,22c0-4.3,0.2-8.5-0.1-12.8c-0.2-2.6,1.4-2.2,2.9-2.3c1.7-0.1,2.9-0.1,2.8,2.4c-0.2,6.9,0,13.9-0.1,20.8
		c0,1.9,0.5,2.7,2.5,2.5c1.4-0.1,2.8,0.1,4.2,0.1c1.7,0,2.3,0.7,2.4,2.5c0.1,2.4-0.5,2.9-3,2.5c-3.1-0.5-6.3-0.7-9.5-0.6
		c-2,0-2.3-0.7-2.3-2.4C103.3,30.5,103.2,26.2,103.2,22z"/>
	<path class="st1" d="M125.2,23.1c0,4.5-0.1,9.1,0,13.6c0,1.7-0.4,2.2-2.2,2c-2.6-0.2-3.7-1.1-3.6-4c0.2-8.4,0.2-16.9,0-25.3
		c0-2.4,1-2.5,2.8-2.4c1.8,0,3.2-0.1,3,2.5C125,14,125.2,18.5,125.2,23.1z"/>
</g>
</svg>
